<?xml version="1.0" standalone="no"?>
<!DOCTYPE svg PUBLIC "-//W3C//DTD SVG 1.1//EN" "http://www.w3.org/Graphics/SVG/1.1/DTD/svg11.dtd">
<svg xmlns="http://www.w3.org/2000/svg" xmlns:xlink="http://www.w3.org/1999/xlink" version="1.1" x="0px" y="0px" viewBox="0 0 818 130.2" style="enable-background:new 0 0 818 130.2;" xml:space="preserve" width="818" height="130.1999969482422">
<style type="text/css">
	.st0{fill:#0C0C0C;}
</style>
<g id="Layer_1">
	<g>
		<path d="M35.5,97l-8.2,16.1H9.5l48.1-96.2l32.1,64.2H71.7L57.6,52.9L43.4,81.2L35.5,97L35.5,97z M105.8,113.2H87.8l-7.9-16h17.8    L105.8,113.2z"/>
		<path d="M189.1,49c0,8.8-3,16.5-9.4,22.7c-6.3,6.3-13.8,9.4-22.6,9.4h-32.1v32h-16V65h48.1c4.3,0,8.1-1.6,11.2-4.7    s4.8-6.9,4.8-11.3s-1.6-8.2-4.8-11.3c-3.1-3.1-6.9-4.7-11.2-4.7h-48.3l0.2-16.1h48.1c8.8,0,16.4,3.1,22.6,9.4    C185.9,32.7,189.1,40.3,189.1,49z"/>
		<rect x="259" y="16.9" width="16" height="39.2"/>
		<polygon points="259,72.2 259,81.3 259,113.1 275,113.1 275,72.2   "/>
		<polyline points="193.9,65.2 193.9,16.9 209.9,16.9 209.9,113.1 193.9,113.1 193.9,81.3   "/>
		<rect x="209.9" y="56.1" width="49.1" height="16.1"/>
	</g>
</g>
<g id="Layer_2">
	<g>
		<path class="st0" d="M445.7,85.6c-1,5.7-3,10.7-6,14.9c-3,4.2-6.7,7.4-11.2,9.6c-4.5,2.2-9.5,3.3-15,3.3c-4.5,0-8.8-0.9-13-2.5    c-4.1-1.7-7.7-4.1-10.8-7.2c-2.8-2.8-4.8-5.8-6.1-8.9s-2-6.7-2.3-10.8s-0.5-10.3-0.5-18.9s0.1-14.9,0.5-18.9    c0.3-4,1.1-7.6,2.3-10.8s3.2-6.1,6.1-8.9c3.1-3.1,6.7-5.5,10.8-7.2c4.1-1.7,8.4-2.5,13-2.5c5.6,0,10.6,1.1,15.1,3.3    c4.5,2.2,8.2,5.4,11.2,9.5c2.9,4.1,4.9,9.1,6,14.9h-7.3c-1.4-6.6-4.3-11.8-8.8-15.6c-4.5-3.8-9.9-5.7-16.2-5.7    c-3.4,0-6.6,0.6-9.7,1.8c-3.1,1.2-5.9,3-8.3,5.5c-1.7,1.7-3,3.5-3.9,5.3c-0.9,1.8-1.7,4.1-2.2,6.9s-0.9,6-1,9.5s-0.2,7.9-0.2,12.9    c0,7.5,0.1,13.2,0.5,17.2c0.3,3.9,1,7.3,2,10c1,2.7,2.6,5.2,4.8,7.4c2.4,2.4,5.1,4.2,8.3,5.5c3.1,1.3,6.4,1.9,9.8,1.9    c4.2,0,8-0.9,11.5-2.6c3.5-1.7,6.4-4.2,8.8-7.5s4-7,4.9-11.3L445.7,85.6L445.7,85.6z"/>
		<path class="st0" d="M474.2,112.6H467v-95h7.2V112.6z"/>
		<path class="st0" d="M553.1,112.6h-57.7v-95h57.7V24h-50.4v37.5h42.9v6.4h-42.9v38.3h50.4V112.6L553.1,112.6z"/>
		<path class="st0" d="M643.5,112.6h-7.2L581.5,30v82.6h-7.2v-95h7.2l54.8,82.3V17.6h7.2V112.6z"/>
		<path class="st0" d="M729.6,85.6c-1,5.7-3,10.7-6,14.9s-6.7,7.4-11.2,9.6s-9.5,3.3-15,3.3c-4.5,0-8.8-0.9-13-2.5    c-4.1-1.7-7.7-4.1-10.8-7.2c-2.8-2.8-4.8-5.8-6.1-8.9s-2-6.7-2.3-10.8c-0.3-4-0.5-10.3-0.5-18.9s0.2-14.9,0.5-18.9    c0.3-4,1.1-7.6,2.3-10.8c1.2-3.1,3.2-6.1,6.1-8.9c3.1-3.1,6.7-5.5,10.8-7.2c4.1-1.7,8.4-2.5,13-2.5c5.6,0,10.6,1.1,15.1,3.3    c4.5,2.2,8.2,5.4,11.2,9.5c2.9,4.1,4.9,9.1,6,14.9h-7.3c-1.4-6.6-4.3-11.8-8.8-15.6c-4.5-3.8-9.8-5.7-16.2-5.7    c-3.4,0-6.6,0.6-9.7,1.8c-3.1,1.2-5.9,3-8.3,5.5c-1.7,1.7-3,3.5-3.9,5.3c-0.9,1.8-1.7,4.1-2.2,6.9s-0.8,6-1,9.5s-0.2,7.9-0.2,12.9    c0,7.5,0.2,13.2,0.5,17.2c0.3,3.9,1,7.3,2,10c1,2.7,2.7,5.2,4.8,7.4c2.4,2.4,5.2,4.2,8.3,5.5c3.1,1.3,6.4,1.9,9.8,1.9    c4.2,0,8-0.9,11.5-2.6c3.5-1.7,6.4-4.2,8.8-7.5s4-7,4.9-11.3L729.6,85.6L729.6,85.6z"/>
		<path class="st0" d="M808.5,112.6h-57.7v-95h57.7V24h-50.4v37.5H801v6.4h-42.9v38.3h50.4V112.6L808.5,112.6z"/>
		<path class="st0" d="M359.7,87.1c0,3.9-0.7,7.5-2.2,10.8c-1.5,3.3-3.6,6.1-6.3,8.3s-6.1,4-10.2,5.3c-4,1.2-8.5,1.9-13.3,1.9    c-4.5,0-8.6-0.4-12.4-1.3s-7.2-2.2-10.3-4.1c-3.1-1.9-6.1-4.2-9-7.1l5.1-5.1c2.9,2.9,5.6,5.1,8.3,6.7c2.6,1.6,5.5,2.8,8.5,3.5    c3,0.7,6.4,1,10.1,1c5,0,9.3-0.8,13-2.3c3.6-1.5,6.5-3.8,8.5-6.8c2-3,3-6.5,3-10.5c0-5.8-1.7-10.3-5.2-13.4    c-1.6-1.4-3.4-2.4-5.3-3.2c-2-0.7-4.8-1.4-8.4-1.9l-11.1-1.7c-7.2-1.1-12.8-3.4-16.9-7c-5-4.2-7.5-10-7.5-17.5    c0-4,0.7-7.6,2.1-10.9c1.4-3.2,3.4-6,5.9-8.2c2.5-2.2,5.6-4,9.3-5.1c3.7-1.2,7.8-1.8,12.2-1.8c5.8,0,10.7,0.8,14.9,2.4    s8.3,4.2,12.4,7.8l-4.7,4.7c-3.3-3-6.7-5.2-10.1-6.6c-3.4-1.4-7.7-2.1-12.9-2.1c-6.9,0-12.2,1.8-16.1,5.3s-5.9,8.3-5.9,14.3    c0,5.5,1.6,9.6,4.9,12.4c1.8,1.4,4,2.7,6.5,3.8c2.6,1.1,5.1,1.8,7.6,2.1l10.2,1.6c4.4,0.6,7.8,1.4,10.3,2.3s4.7,2.2,6.7,3.9    c2.7,2.2,4.8,4.9,6.2,8C359,79.9,359.7,83.4,359.7,87.1L359.7,87.1z"/>
	</g>
</g>
</svg>