<?xml version="1.0" encoding="UTF-8"?>
<svg id="Layer_1" xmlns="http://www.w3.org/2000/svg" version="1.1" viewBox="0 0 818 130.2">
  <!-- Generator: Adobe Illustrator 30.1.0, SVG Export Plug-In . SVG Version: 2.1.1 Build 136)  -->
  <defs>
    <style>
      .st0 {
        fill: #fff;
      }
    </style>
  </defs>
  <g id="Layer_11" data-name="Layer_1">
    <g>
      <path class="st0" d="M35.5,97l-8.2,16.1H9.5L57.6,16.9l32.1,64.2h-18l-14.1-28.2-14.2,28.3-7.9,15.8h0ZM105.8,113.2h-18l-7.9-16h17.8l8.1,16Z"/>
      <path class="st0" d="M189.1,49c0,8.8-3,16.5-9.4,22.7-6.3,6.3-13.8,9.4-22.6,9.4h-32.1v32h-16v-48.1h48.1c4.3,0,8.1-1.6,11.2-4.7s4.8-6.9,4.8-11.3-1.6-8.2-4.8-11.3c-3.1-3.1-6.9-4.7-11.2-4.7h-48.3l.2-16.1h48.1c8.8,0,16.4,3.1,22.6,9.4,6.2,6.4,9.4,14,9.4,22.7Z"/>
      <rect class="st0" x="259" y="16.9" width="16" height="39.2"/>
      <polygon class="st0" points="259 72.2 259 81.3 259 113.1 275 113.1 275 72.2 259 72.2"/>
      <polyline class="st0" points="193.9 65.2 193.9 16.9 209.9 16.9 209.9 113.1 193.9 113.1 193.9 81.3"/>
      <rect class="st0" x="209.9" y="56.1" width="49.1" height="16.1"/>
    </g>
  </g>
  <g id="Layer_2">
    <g>
      <path class="st0" d="M445.7,85.6c-1,5.7-3,10.7-6,14.9-3,4.2-6.7,7.4-11.2,9.6s-9.5,3.3-15,3.3-8.8-.9-13-2.5c-4.1-1.7-7.7-4.1-10.8-7.2-2.8-2.8-4.8-5.8-6.1-8.9s-2-6.7-2.3-10.8-.5-10.3-.5-18.9.1-14.9.5-18.9c.3-4,1.1-7.6,2.3-10.8s3.2-6.1,6.1-8.9c3.1-3.1,6.7-5.5,10.8-7.2,4.1-1.7,8.4-2.5,13-2.5s10.6,1.1,15.1,3.3c4.5,2.2,8.2,5.4,11.2,9.5,2.9,4.1,4.9,9.1,6,14.9h-7.3c-1.4-6.6-4.3-11.8-8.8-15.6-4.5-3.8-9.9-5.7-16.2-5.7s-6.6.6-9.7,1.8c-3.1,1.2-5.9,3-8.3,5.5-1.7,1.7-3,3.5-3.9,5.3s-1.7,4.1-2.2,6.9-.9,6-1,9.5-.2,7.9-.2,12.9c0,7.5.1,13.2.5,17.2.3,3.9,1,7.3,2,10s2.6,5.2,4.8,7.4c2.4,2.4,5.1,4.2,8.3,5.5,3.1,1.3,6.4,1.9,9.8,1.9s8-.9,11.5-2.6,6.4-4.2,8.8-7.5,4-7,4.9-11.3h6.9Z"/>
      <path class="st0" d="M474.2,112.6h-7.2V17.6h7.2v95Z"/>
      <path class="st0" d="M553.1,112.6h-57.7V17.6h57.7v6.4h-50.4v37.5h42.9v6.4h-42.9v38.3h50.4v6.4h0Z"/>
      <path class="st0" d="M643.5,112.6h-7.2l-54.8-82.6v82.6h-7.2V17.6h7.2l54.8,82.3V17.6h7.2v95Z"/>
      <path class="st0" d="M729.6,85.6c-1,5.7-3,10.7-6,14.9s-6.7,7.4-11.2,9.6-9.5,3.3-15,3.3-8.8-.9-13-2.5c-4.1-1.7-7.7-4.1-10.8-7.2-2.8-2.8-4.8-5.8-6.1-8.9s-2-6.7-2.3-10.8c-.3-4-.5-10.3-.5-18.9s.2-14.9.5-18.9,1.1-7.6,2.3-10.8c1.2-3.1,3.2-6.1,6.1-8.9,3.1-3.1,6.7-5.5,10.8-7.2,4.1-1.7,8.4-2.5,13-2.5s10.6,1.1,15.1,3.3c4.5,2.2,8.2,5.4,11.2,9.5,2.9,4.1,4.9,9.1,6,14.9h-7.3c-1.4-6.6-4.3-11.8-8.8-15.6-4.5-3.8-9.8-5.7-16.2-5.7s-6.6.6-9.7,1.8c-3.1,1.2-5.9,3-8.3,5.5-1.7,1.7-3,3.5-3.9,5.3s-1.7,4.1-2.2,6.9-.8,6-1,9.5-.2,7.9-.2,12.9c0,7.5.2,13.2.5,17.2.3,3.9,1,7.3,2,10s2.7,5.2,4.8,7.4c2.4,2.4,5.2,4.2,8.3,5.5s6.4,1.9,9.8,1.9,8-.9,11.5-2.6,6.4-4.2,8.8-7.5,4-7,4.9-11.3h6.9Z"/>
      <path class="st0" d="M808.5,112.6h-57.7V17.6h57.7v6.4h-50.4v37.5h42.9v6.4h-42.9v38.3h50.4v6.4h0Z"/>
      <path class="st0" d="M359.7,87.1c0,3.9-.7,7.5-2.2,10.8s-3.6,6.1-6.3,8.3-6.1,4-10.2,5.3c-4,1.2-8.5,1.9-13.3,1.9s-8.6-.4-12.4-1.3-7.2-2.2-10.3-4.1c-3.1-1.9-6.1-4.2-9-7.1l5.1-5.1c2.9,2.9,5.6,5.1,8.3,6.7,2.6,1.6,5.5,2.8,8.5,3.5s6.4,1,10.1,1,9.3-.8,13-2.3c3.6-1.5,6.5-3.8,8.5-6.8s3-6.5,3-10.5c0-5.8-1.7-10.3-5.2-13.4-1.6-1.4-3.4-2.4-5.3-3.2-2-.7-4.8-1.4-8.4-1.9l-11.1-1.7c-7.2-1.1-12.8-3.4-16.9-7-5-4.2-7.5-10-7.5-17.5s.7-7.6,2.1-10.9c1.4-3.2,3.4-6,5.9-8.2,2.5-2.2,5.6-4,9.3-5.1,3.7-1.2,7.8-1.8,12.2-1.8s10.7.8,14.9,2.4,8.3,4.2,12.4,7.8l-4.7,4.7c-3.3-3-6.7-5.2-10.1-6.6s-7.7-2.1-12.9-2.1-12.2,1.8-16.1,5.3-5.9,8.3-5.9,14.3,1.6,9.6,4.9,12.4c1.8,1.4,4,2.7,6.5,3.8,2.6,1.1,5.1,1.8,7.6,2.1l10.2,1.6c4.4.6,7.8,1.4,10.3,2.3,2.5.9,4.7,2.2,6.7,3.9,2.7,2.2,4.8,4.9,6.2,8,1.4,3.3,2.1,6.8,2.1,10.5h0Z"/>
    </g>
  </g>
</svg>