<?xml version="1.0" encoding="UTF-8"?>
<svg id="Layer_1" xmlns="http://www.w3.org/2000/svg" version="1.1" viewBox="0 0 24 24">
  <!-- Generator: Adobe Illustrator 30.1.0, SVG Export Plug-In . SVG Version: 2.1.1 Build 136)  -->
  <path d="M12,1.3c5.9,0,10.7,4.8,10.7,10.7s-4.8,10.7-10.7,10.7S1.3,17.9,1.3,12,6.1,1.3,12,1.3ZM12,3.4C7.3,3.4,3.4,7.3,3.4,12s3.9,8.6,8.6,8.6,8.6-3.9,8.6-8.6S16.7,3.4,12,3.4ZM12,4.5c1.1,0,2.1.2,3.1.7l-1.7,1.7c-.4-.1-.9-.2-1.4-.2-3,0-5.4,2.4-5.4,5.4s.6,2.8,1.6,3.8l-1.5,1.5-.2-.2c-1.3-1.3-2-3.1-2-5.1,0-4.2,3.4-7.5,7.5-7.5h0ZM18.9,8.9c.4.9.6,2,.6,3.1,0,2.1-.8,3.9-2.2,5.3l-1.5-1.5c1-1,1.6-2.3,1.6-3.8s0-.9-.2-1.4l1.7-1.7h0ZM16.6,5.9l1.5,1.5-4,4c0,.2,0,.4,0,.6,0,1.2-1,2.1-2.1,2.1s-2.1-1-2.1-2.1,1-2.1,2.1-2.1.4,0,.6,0c0,0,4-4,4-4Z"/>
</svg>