<?xml version="1.0" encoding="UTF-8"?>
<svg id="Layer_1" xmlns="http://www.w3.org/2000/svg" version="1.1" viewBox="0 0 24 24">
  <!-- Generator: Adobe Illustrator 30.1.0, SVG Export Plug-In . SVG Version: 2.1.1 Build 136)  -->
  <defs>
    <style>
      .st0 {
        fill-rule: evenodd;
      }
    </style>
  </defs>
  <path class="st0" d="M15.8,2.5c.6,0,1.3,0,1.9.3,3.7,1.2,5,5.3,3.9,8.8-.6,1.8-1.7,3.5-3,4.8-1.9,1.9-4.1,3.5-6.3,5h-.3c0,.1-.3-.1-.3-.1-2.3-1.4-4.4-3.1-6.4-5-1.3-1.3-2.4-3-3-4.8-1-3.5.3-7.5,4-8.7.3,0,.6-.2.9-.2h0c.3,0,.6,0,.8,0h.1c.6,0,1.2,0,1.8.3h.1s.1,0,.1,0c.3,0,.5,0,.7.3l.4.2c.1,0,.2,0,.3.2.1,0,.1,0,.1,0h0c.1,0,.2,0,.3.2,1.1-.9,2.5-1.4,3.8-1.4ZM18.5,9.7c.4,0,.8-.3.8-.8h0c0-1.5-.8-2.8-2.1-3.3-.4,0-.9,0-1,.5s.1.9.5,1c.6.2,1.1.9,1.1,1.6h0c0,.2.1.4.2.6s.3.4.5.4Z"/>
</svg>