<?xml version="1.0" encoding="UTF-8"?>
<svg id="Layer_1" xmlns="http://www.w3.org/2000/svg" version="1.1" viewBox="0 0 24 24">
  <!-- Generator: Adobe Illustrator 30.1.0, SVG Export Plug-In . SVG Version: 2.1.1 Build 136)  -->
  <path d="M16.2,3.4c-.9.8-1.7,1.7-2.4,2.5-1.1-1.6-2.6-3.2-4.2-4.7C5.5,5.1,2.6,10.1,2.6,13.1c0,5.3,4.2,9.7,9.4,9.7s9.4-4.3,9.4-9.7-2.2-6.8-5.2-9.7h0ZM15.4,17.7c-.9.6-2,1-3.2,1-3,0-5.5-2-5.5-5.2s1-3.1,3.1-5.5c.3.3,4.1,5.3,4.1,5.3l2.5-2.8c.2.3.3.6.5.8,1.1,2.2.7,5-1.4,6.4h0Z"/>
</svg>